<?xml version="1.0" encoding="UTF-8" standalone="no"?>
<!-- Created with Inkscape (http://www.inkscape.org/) -->

<svg
   width="210mm"
   height="297mm"
   viewBox="0 0 793.70081 1122.5197"
   version="1.1"
   id="svg5"
   inkscape:version="1.1.1 (3bf5ae0d25, 2021-09-20)"
   sodipodi:docname="original.svg"
   inkscape:export-filename="/home/neutron/Downloads/N3U1R0N/logo-text.png"
   inkscape:export-xdpi="310.39856"
   inkscape:export-ydpi="310.39856"
   xmlns:inkscape="http://www.inkscape.org/namespaces/inkscape"
   xmlns:sodipodi="http://sodipodi.sourceforge.net/DTD/sodipodi-0.dtd"
   xmlns="http://www.w3.org/2000/svg"
   xmlns:svg="http://www.w3.org/2000/svg">
  <sodipodi:namedview
     id="namedview7"
     pagecolor="#ffffff"
     bordercolor="#666666"
     borderopacity="1.0"
     inkscape:pageshadow="2"
     inkscape:pageopacity="0.0"
     inkscape:pagecheckerboard="true"
     inkscape:document-units="mm"
     showgrid="false"
     inkscape:zoom="0.35355339"
     inkscape:cx="-70.710678"
     inkscape:cy="565.68542"
     inkscape:window-width="1920"
     inkscape:window-height="1043"
     inkscape:window-x="0"
     inkscape:window-y="0"
     inkscape:window-maximized="1"
     inkscape:current-layer="layer1" />
  <defs
     id="defs2">
    <marker
       orient="auto"
       refY="0"
       refX="0"
       id="InfiniteLineEnd"
       inkscape:stockid="InfiniteLineEnd"
       style="overflow:visible"
       inkscape:isstock="true">
      <g
         style="fill:context-stroke"
         id="g31217">
        <circle
           cx="3"
           cy="0"
           r="0.8"
           id="circle31211" />
        <circle
           cx="6.5"
           cy="0"
           r="0.8"
           id="circle31213" />
        <circle
           cx="10"
           cy="0"
           r="0.8"
           id="circle31215" />
      </g>
    </marker>
    <marker
       inkscape:stockid="DistanceStart"
       orient="auto"
       refY="0.0"
       refX="0.0"
       id="DistanceStart"
       style="overflow:visible"
       inkscape:isstock="true">
      <g
         id="g2300">
        <path
           id="path2306"
           d="M 0,0 L 2,0"
           style="fill:none;stroke:context-fill;stroke-width:1.15;stroke-linecap:square" />
        <path
           id="path2302"
           d="M 0,0 L 13,4 L 9,0 13,-4 L 0,0 z "
           style="fill:context-stroke;fill-rule:evenodd;stroke:none" />
        <path
           id="path2304"
           d="M 0,-4 L 0,40"
           style="fill:none;stroke:context-stroke;stroke-width:1;stroke-linecap:square" />
      </g>
    </marker>
    <marker
       style="overflow:visible"
       id="DiamondLstart"
       refX="0.0"
       refY="0.0"
       orient="auto"
       inkscape:stockid="DiamondLstart"
       inkscape:isstock="true">
      <path
         transform="scale(0.8) translate(7,0)"
         style="fill-rule:evenodd;fill:context-stroke;stroke:context-stroke;stroke-width:1.0pt"
         d="M 0,-7.0710768 L -7.0710894,0 L 0,7.0710589 L 7.0710462,0 L 0,-7.0710768 z "
         id="path31064" />
    </marker>
    <marker
       style="overflow:visible"
       id="DiamondL"
       refX="0.0"
       refY="0.0"
       orient="auto"
       inkscape:stockid="DiamondL"
       inkscape:isstock="true">
      <path
         transform="scale(0.8)"
         style="fill-rule:evenodd;fill:context-stroke;stroke:context-stroke;stroke-width:1.0pt"
         d="M 0,-7.0710768 L -7.0710894,0 L 0,7.0710589 L 7.0710462,0 L 0,-7.0710768 z "
         id="path31055" />
    </marker>
    <marker
       style="overflow:visible"
       id="Tail"
       refX="0.0"
       refY="0.0"
       orient="auto"
       inkscape:stockid="Tail"
       inkscape:isstock="true">
      <g
         transform="scale(-1.2)"
         id="g31024">
        <path
           style="fill:none;fill-rule:evenodd;stroke:context-stroke;stroke-width:0.8;stroke-linecap:round"
           d="M -3.8048674,-3.9585227 L 0.54352094,0"
           id="path31012" />
        <path
           style="fill:none;fill-rule:evenodd;stroke:context-stroke;stroke-width:0.8;stroke-linecap:round"
           d="M -1.2866832,-3.9585227 L 3.0617053,0"
           id="path31014" />
        <path
           style="fill:none;fill-rule:evenodd;stroke:context-stroke;stroke-width:0.8;stroke-linecap:round"
           d="M 1.3053582,-3.9585227 L 5.6537466,0"
           id="path31016" />
        <path
           style="fill:none;fill-rule:evenodd;stroke:context-stroke;stroke-width:0.8;stroke-linecap:round"
           d="M -3.8048674,4.1775838 L 0.54352094,0.21974226"
           id="path31018" />
        <path
           style="fill:none;fill-rule:evenodd;stroke:context-stroke;stroke-width:0.8;stroke-linecap:round"
           d="M -1.2866832,4.1775838 L 3.0617053,0.21974226"
           id="path31020" />
        <path
           style="fill:none;fill-rule:evenodd;stroke:context-stroke;stroke-width:0.8;stroke-linecap:round"
           d="M 1.3053582,4.1775838 L 5.6537466,0.21974226"
           id="path31022" />
      </g>
    </marker>
    <marker
       style="overflow:visible"
       id="marker32167"
       refX="0.0"
       refY="0.0"
       orient="auto"
       inkscape:stockid="DotL"
       inkscape:isstock="true">
      <path
         transform="scale(0.8) translate(7.4, 1)"
         style="fill-rule:evenodd;fill:context-stroke;stroke:context-stroke;stroke-width:1.0pt"
         d="M -2.5,-1.0 C -2.5,1.7600000 -4.7400000,4.0 -7.5,4.0 C -10.260000,4.0 -12.5,1.7600000 -12.5,-1.0 C -12.5,-3.7600000 -10.260000,-6.0 -7.5,-6.0 C -4.7400000,-6.0 -2.5,-3.7600000 -2.5,-1.0 z "
         id="path32165" />
    </marker>
    <marker
       style="overflow:visible;"
       id="Arrow1Mend"
       refX="0.0"
       refY="0.0"
       orient="auto"
       inkscape:stockid="Arrow1Mend"
       inkscape:isstock="true">
      <path
         transform="scale(0.4) rotate(180) translate(10,0)"
         style="fill-rule:evenodd;fill:context-stroke;stroke:context-stroke;stroke-width:1.0pt;"
         d="M 0.0,0.0 L 5.0,-5.0 L -12.5,0.0 L 5.0,5.0 L 0.0,0.0 z "
         id="path30985" />
    </marker>
    <marker
       style="overflow:visible"
       id="DotL"
       refX="0.0"
       refY="0.0"
       orient="auto"
       inkscape:stockid="DotL"
       inkscape:isstock="true">
      <path
         transform="scale(0.8) translate(7.4, 1)"
         style="fill-rule:evenodd;fill:context-stroke;stroke:context-stroke;stroke-width:1.0pt"
         d="M -2.5,-1.0 C -2.5,1.7600000 -4.7400000,4.0 -7.5,4.0 C -10.260000,4.0 -12.5,1.7600000 -12.5,-1.0 C -12.5,-3.7600000 -10.260000,-6.0 -7.5,-6.0 C -4.7400000,-6.0 -2.5,-3.7600000 -2.5,-1.0 z "
         id="path31037" />
    </marker>
    <marker
       style="overflow:visible"
       id="DiamondLend"
       refX="0.0"
       refY="0.0"
       orient="auto"
       inkscape:stockid="DiamondLend"
       inkscape:isstock="true">
      <path
         transform="scale(0.8) translate(-7,0)"
         style="fill-rule:evenodd;fill:context-stroke;stroke:context-stroke;stroke-width:1.0pt"
         d="M 0,-7.0710768 L -7.0710894,0 L 0,7.0710589 L 7.0710462,0 L 0,-7.0710768 z "
         id="path31073" />
    </marker>
    <marker
       style="overflow:visible"
       id="EmptyDiamondL"
       refX="0.0"
       refY="0.0"
       orient="auto"
       inkscape:stockid="EmptyDiamondL"
       inkscape:isstock="true">
      <path
         transform="scale(0.8)"
         style="fill-rule:evenodd;fill:context-fill;stroke:context-stroke;stroke-width:1.0pt"
         d="M 0,-7.0710768 L -7.0710894,0 L 0,7.0710589 L 7.0710462,0 L 0,-7.0710768 z "
         id="path31082" />
    </marker>
    <marker
       style="overflow:visible"
       id="DotM"
       refX="0.0"
       refY="0.0"
       orient="auto"
       inkscape:stockid="DotM"
       inkscape:isstock="true">
      <path
         transform="scale(0.4) translate(7.4, 1)"
         style="fill-rule:evenodd;fill:context-stroke;stroke:context-stroke;stroke-width:1.0pt"
         d="M -2.5,-1.0 C -2.5,1.7600000 -4.7400000,4.0 -7.5,4.0 C -10.260000,4.0 -12.5,1.7600000 -12.5,-1.0 C -12.5,-3.7600000 -10.260000,-6.0 -7.5,-6.0 C -4.7400000,-6.0 -2.5,-3.7600000 -2.5,-1.0 z "
         id="path31040" />
    </marker>
    <marker
       style="overflow:visible"
       id="DiamondS"
       refX="0.0"
       refY="0.0"
       orient="auto"
       inkscape:stockid="DiamondS"
       inkscape:isstock="true">
      <path
         transform="scale(0.2)"
         style="fill-rule:evenodd;fill:context-stroke;stroke:context-stroke;stroke-width:1.0pt"
         d="M 0,-7.0710768 L -7.0710894,0 L 0,7.0710589 L 7.0710462,0 L 0,-7.0710768 z "
         id="path31061" />
    </marker>
    <marker
       style="overflow:visible"
       id="Arrow1Lstart"
       refX="0.0"
       refY="0.0"
       orient="auto"
       inkscape:stockid="Arrow1Lstart"
       inkscape:isstock="true">
      <path
         transform="scale(0.8) translate(12.5,0)"
         style="fill-rule:evenodd;fill:context-stroke;stroke:context-stroke;stroke-width:1.0pt"
         d="M 0.0,0.0 L 5.0,-5.0 L -12.5,0.0 L 5.0,5.0 L 0.0,0.0 z "
         id="path30976" />
    </marker>
  </defs>
  <g
     inkscape:label="Layer 1"
     inkscape:groupmode="layer"
     id="layer1">
    <g
       id="g25943"
       transform="matrix(1.7362092,0,0,1.7362092,-149.31646,-144.30897)"
       inkscape:export-filename="/home/neutron/Downloads/N3U1R0N/logo.png"
       inkscape:export-xdpi="310.39856"
       inkscape:export-ydpi="310.39856"
       style="stroke-linecap:butt;stroke-linejoin:round">
      <path
         id="path25606-9"
         style="fill:#55ddff;fill-opacity:1;stroke:none;stroke-width:1.77586;stroke-linecap:butt;stroke-linejoin:round;stroke-miterlimit:4;stroke-dasharray:none;stroke-opacity:1"
         d="m 298.36242,245.20362 -8.1875,8.1875 h -4.17773 l -18.25977,18.25781 h 5.76367 l -8.67968,8.67969 h -5.79883 l -3.30274,3.30273 h 4.92188 l -2.75977,2.75977 5.58008,5.58203 -2.04687,2.04687 h -5.18164 l -3.53125,3.53125 -5.58008,5.58008 -5.58203,-5.58008 -14.72852,14.72852 h 7.38867 l -12.88476,12.88476 h -8.44141 l -3.30273,3.30274 h 5.52539 l -8.26563,8.26562 h -3.41015 l -2.00586,2.00586 4.12695,4.12696 h 5.76562 l 1.45313,1.45312 -5.58008,5.58008 0.32227,0.32227 h -2.35547 l 18.25781,18.25781 h -4.63476 l 9.70507,9.70703 h 4.63477 l 6.13281,6.13281 h -2.51367 l 6.76953,6.76953 5.58203,-5.58007 5.57813,5.57812 6.76757,-6.76758 h 2.51368 l 6.13281,-6.13281 h -4.63477 l 9.70899,-9.70703 h 4.63476 l 18.25782,-18.25781 h 2.35547 l 0.32226,-0.32227 -5.58008,-5.58008 1.45313,-1.45312 h -5.76563 l 4.12696,-4.12696 2.00586,-2.00586 h 3.41015 l 3.57422,-3.57226 3.57422,3.57226 h -3.41016 l 2.00586,2.00586 4.125,4.12696 h 5.76563 l 1.45312,1.45312 -5.57812,5.58008 0.32226,0.32227 h -2.35547 l 18.25782,18.25781 h -4.63477 l 9.70508,9.70703 h 4.63476 l 6.13282,6.13281 h -2.51368 l 6.76954,6.76953 5.57812,-5.58007 5.58203,5.57812 6.76758,-6.76758 h 2.51367 l 6.13282,-6.13281 h -4.63477 l 9.70703,-9.70703 h 4.63477 l 18.25781,-18.25781 h 2.35547 l 0.32226,-0.32227 -5.57812,-5.58008 1.45312,-1.45312 h -5.76562 l 4.125,-4.12696 -2.00586,-2.00586 h 3.41015 l -8.26562,-8.26562 h -5.52539 l -3.30273,-3.30274 h 8.4414 l -12.88476,-12.88476 h -7.38868 l -14.72851,-14.72852 -5.58203,5.58008 -5.57813,-5.58008 -3.5332,-3.53125 h 5.18164 l -2.04688,-2.04687 5.58008,-5.58203 -2.75976,-2.75977 h -4.92188 l -3.30273,-3.30273 h 5.79883 l -8.67969,-8.67969 h -5.76367 l -18.25782,-18.25781 h 4.17774 l -8.1875,-8.1875 -5.58008,5.57812 z m -43.85156,69.08593 10.875,10.875 h -8.44141 l 3.30274,3.30274 h 5.52539 l 8.26562,8.26562 h -3.41015 l 6.13281,6.13282 h 5.76562 l 1.45118,1.45117 -5.9043,5.9043 h -2.35547 l -18.25586,18.25781 h -4.63476 l -5.86719,5.86719 -5.86719,-5.86719 h 4.63477 L 227.46789,350.2212 h 2.35547 l -5.90234,-5.90235 1.45312,-1.45312 h -5.76562 l 6.13281,-6.13282 h 3.41015 l 8.26563,-8.26562 h -5.52539 l 3.30273,-3.30274 h 8.44141 z m 104.69336,0.002 10.87305,10.87304 h -8.44141 l 3.30273,3.30274 h 5.52539 l 8.26758,8.26562 h -3.41015 l 6.13281,6.13282 h 5.76562 l 1.45313,1.45312 -5.90234,5.90235 h -2.35547 l -18.25782,18.25781 h -4.63476 l -5.86914,5.86914 -5.86914,-5.86914 h 4.63476 L 332.1632,350.2212 h 2.35547 l -5.90234,-5.90235 1.45312,-1.45312 h -5.76562 l 6.13281,-6.13282 h 3.41016 l 8.26562,-8.26562 h -5.52539 l 3.30274,-3.30274 h 8.4414 z" />
      <rect
         style="fill:#ff2a7f;fill-opacity:1;stroke:none;stroke-width:3.77953;stroke-linecap:butt;stroke-linejoin:round;stroke-miterlimit:4;stroke-dasharray:none;stroke-opacity:1"
         id="rect25702"
         width="5.6117325"
         height="4.1413727"
         x="260.37277"
         y="366.93729" />
      <path
         id="path25606"
         style="fill:#ff2a7f;fill-opacity:1;stroke:none;stroke-width:1.77586;stroke-linecap:butt;stroke-linejoin:round;stroke-miterlimit:4;stroke-dasharray:none;stroke-opacity:1"
         d="m 320.68274,245.20362 -8.1875,8.1875 h -4.17773 l -18.25977,18.25781 h 5.76367 l -8.67968,8.67969 h -5.79883 l -3.30274,3.30273 h 4.92188 l -2.75977,2.75977 5.58008,5.58203 -2.04687,2.04687 h -5.18164 l -3.53125,3.53125 -5.58008,5.58008 -5.58203,-5.58008 -14.72852,14.72852 h 7.38867 l -12.88476,12.88476 h -8.44141 l -3.30273,3.30274 h 5.52539 l -8.26563,8.26562 h -3.41015 l -2.00586,2.00586 4.12695,4.12696 h 5.76562 l 1.45313,1.45312 -5.58008,5.58008 0.32227,0.32227 h -2.35547 l 18.25781,18.25781 h -4.63476 l 9.70507,9.70703 h 4.63477 l 6.13281,6.13281 h -2.51367 l 6.76953,6.76953 5.58203,-5.58007 5.57813,5.57812 6.76757,-6.76758 h 2.51368 l 6.13281,-6.13281 h -4.63477 l 9.70899,-9.70703 h 4.63476 l 18.25782,-18.25781 h 2.35547 l 0.32226,-0.32227 -5.58008,-5.58008 1.45313,-1.45312 h -5.76563 l 4.12696,-4.12696 2.00586,-2.00586 h 3.41015 l 3.57422,-3.57226 3.57422,3.57226 h -3.41016 l 2.00586,2.00586 4.125,4.12696 h 5.76563 l 1.45312,1.45312 -5.57812,5.58008 0.32226,0.32227 h -2.35547 l 18.25782,18.25781 h -4.63477 l 9.70508,9.70703 h 4.63476 l 6.13282,6.13281 h -2.51368 l 6.76954,6.76953 5.57812,-5.58007 5.58203,5.57812 6.76758,-6.76758 h 2.51367 l 6.13282,-6.13281 h -4.63477 l 9.70703,-9.70703 h 4.63477 l 18.25781,-18.25781 h 2.35547 l 0.32226,-0.32227 -5.57812,-5.58008 1.45312,-1.45312 h -5.76562 l 4.125,-4.12696 -2.00586,-2.00586 h 3.41015 l -8.26562,-8.26562 h -5.52539 l -3.30273,-3.30274 h 8.4414 l -12.88476,-12.88476 h -7.38868 l -14.72851,-14.72852 -5.58203,5.58008 -5.57813,-5.58008 -3.5332,-3.53125 h 5.18164 l -2.04688,-2.04687 5.58008,-5.58203 -2.75976,-2.75977 h -4.92188 l -3.30273,-3.30273 h 5.79883 l -8.67969,-8.67969 h -5.76367 l -18.25782,-18.25781 h 4.17774 l -8.1875,-8.1875 -5.58008,5.57812 z m -43.85156,69.08593 10.875,10.875 h -8.44141 l 3.30274,3.30274 h 5.52539 l 8.26562,8.26562 h -3.41015 l 6.13281,6.13282 h 5.76562 l 1.45118,1.45117 -5.9043,5.9043 h -2.35547 l -18.25586,18.25781 h -4.63476 l -5.86719,5.86719 -5.86719,-5.86719 h 4.63477 L 249.78821,350.2212 h 2.35547 l -5.90234,-5.90235 1.45312,-1.45312 h -5.76562 l 6.13281,-6.13282 h 3.41015 l 8.26563,-8.26562 h -5.52539 l 3.30273,-3.30274 h 8.44141 z m 104.69336,0.002 10.87305,10.87304 h -8.44141 l 3.30273,3.30274 h 5.52539 l 8.26758,8.26562 h -3.41015 l 6.13281,6.13282 h 5.76562 l 1.45313,1.45312 -5.90234,5.90235 h -2.35547 l -18.25782,18.25781 h -4.63476 l -5.86914,5.86914 -5.86914,-5.86914 h 4.63476 L 354.48352,350.2212 h 2.35547 l -5.90234,-5.90235 1.45312,-1.45312 h -5.76562 l 6.13281,-6.13282 h 3.41016 l 8.26562,-8.26562 h -5.52539 l 3.30274,-3.30274 h 8.4414 z" />
      <rect
         style="fill:#ff2a7f;fill-opacity:1;stroke:none;stroke-width:3.77953;stroke-linecap:butt;stroke-linejoin:round;stroke-miterlimit:4;stroke-dasharray:none;stroke-opacity:1"
         id="rect25702-1"
         width="5.6117325"
         height="4.1413727"
         x="364.94415"
         y="367.42932" />
      <rect
         style="fill:#ff2a7f;fill-opacity:1;stroke:none;stroke-width:3.77953;stroke-linecap:butt;stroke-linejoin:round;stroke-miterlimit:4;stroke-dasharray:none;stroke-opacity:1"
         id="rect25855"
         width="1.831274"
         height="1.2483836"
         x="322.18802"
         y="349.89893" />
      <path
         id="rect24965"
         style="fill:#00112b;fill-opacity:1;stroke:none;stroke-width:1.77586;stroke-linecap:butt;stroke-linejoin:round;stroke-miterlimit:4;stroke-dasharray:none;stroke-opacity:1"
         d="m 309.52258,245.20362 -8.1875,8.1875 h -4.17773 l -18.25977,18.25781 h 5.76367 l -8.67968,8.67969 h -5.79883 l -3.30274,3.30273 h 4.92188 l -2.75977,2.75977 5.58008,5.58203 -2.04687,2.04687 h -5.18164 l -3.53125,3.53125 -5.58008,5.58008 -5.58203,-5.58008 -14.72852,14.72852 h 7.38867 l -12.88476,12.88476 h -8.44141 l -3.30273,3.30274 h 5.52539 l -8.26563,8.26562 h -3.41015 l -2.00586,2.00586 4.12695,4.12696 h 5.76562 l 1.45313,1.45312 -5.58008,5.58008 0.32227,0.32227 h -2.35547 l 18.25781,18.25781 h -4.63476 l 9.70507,9.70703 h 4.63477 l 6.13281,6.13281 h -2.51367 l 6.76953,6.76953 5.58203,-5.58007 5.57813,5.57812 6.76757,-6.76758 h 2.51368 l 6.13281,-6.13281 h -4.63477 l 9.70899,-9.70703 h 4.63476 l 18.25782,-18.25781 h 2.35547 l 0.32226,-0.32227 -5.58008,-5.58008 1.45313,-1.45312 h -5.76563 l 4.12696,-4.12696 2.00586,-2.00586 h 3.41015 l 3.57422,-3.57226 3.57422,3.57226 h -3.41016 l 2.00586,2.00586 4.125,4.12696 h 5.76563 l 1.45312,1.45312 -5.57812,5.58008 0.32226,0.32227 H 321.005 l 18.25782,18.25781 h -4.63477 l 9.70508,9.70703 h 4.63476 l 6.13282,6.13281 h -2.51368 l 6.76954,6.76953 5.57812,-5.58007 5.58203,5.57812 6.76758,-6.76758 h 2.51367 l 6.13282,-6.13281 h -4.63477 l 9.70703,-9.70703 h 4.63477 l 18.25781,-18.25781 h 2.35547 l 0.32226,-0.32227 -5.57812,-5.58008 1.45312,-1.45312 h -5.76562 l 4.125,-4.12696 -2.00586,-2.00586 h 3.41015 l -8.26562,-8.26562 h -5.52539 l -3.30273,-3.30274 h 8.4414 l -12.88476,-12.88476 h -7.38868 l -14.72851,-14.72852 -5.58203,5.58008 -5.57813,-5.58008 -3.5332,-3.53125 h 5.18164 l -2.04688,-2.04687 5.58008,-5.58203 -2.75976,-2.75977 h -4.92188 l -3.30273,-3.30273 h 5.79883 l -8.67969,-8.67969 h -5.76367 L 324.6925,253.39112 h 4.17774 l -8.1875,-8.1875 -5.58008,5.57812 z m -43.85156,69.08593 10.875,10.875 h -8.44141 l 3.30274,3.30274 h 5.52539 l 8.26562,8.26562 h -3.41015 l 6.13281,6.13282 h 5.76562 l 1.45118,1.45117 -5.9043,5.9043 h -2.35547 l -18.25586,18.25781 h -4.63476 l -5.86719,5.86719 -5.86719,-5.86719 h 4.63477 L 238.62805,350.2212 h 2.35547 l -5.90234,-5.90235 1.45312,-1.45312 h -5.76562 l 6.13281,-6.13282 h 3.41015 l 8.26563,-8.26562 h -5.52539 l 3.30273,-3.30274 h 8.44141 z m 104.69336,0.002 10.87305,10.87304 h -8.44141 l 3.30273,3.30274 h 5.52539 l 8.26758,8.26562 h -3.41015 l 6.13281,6.13282 H 398.38 l 1.45313,1.45312 -5.90234,5.90235 h -2.35547 l -18.25782,18.25781 h -4.63476 l -5.86914,5.86914 -5.86914,-5.86914 h 4.63476 L 343.32336,350.2212 h 2.35547 l -5.90234,-5.90235 1.45312,-1.45312 h -5.76562 l 6.13281,-6.13282 h 3.41016 l 8.26562,-8.26562 h -5.52539 l 3.30274,-3.30274 h 8.4414 z" />
    </g>
    <g
       id="g25678"
       transform="matrix(2.1973305,0,0,2.2151931,-283.83946,294.33457)"
       inkscape:export-filename="/home/neutron/Downloads/N3U1R0N/text-banner.png"
       inkscape:export-xdpi="616.54944"
       inkscape:export-ydpi="616.54944">
      <rect
         style="fill:#ff2a7f;fill-opacity:1;stroke-width:5.45298;stroke-linecap:round;stroke-linejoin:round"
         id="rect14626"
         width="2.54515"
         height="1.9887785"
         x="398.41458"
         y="224.88805" />
      <rect
         style="fill:#ff2a7f;fill-opacity:1;stroke-width:5.45298;stroke-linecap:round;stroke-linejoin:round"
         id="rect14522"
         width="4.0819898"
         height="7.0814247"
         x="400.45004"
         y="217.80656" />
      <rect
         style="fill:#ff2a7f;fill-opacity:1;stroke-width:5.45298;stroke-linecap:round;stroke-linejoin:round"
         id="rect14236"
         width="5.9629951"
         height="10.262486"
         x="382.07016"
         y="196.19719" />
      <path
         id="path9092"
         style="font-size:41.8068px;line-height:1.25;font-family:'Pixel Emulator';-inkscape-font-specification:'Pixel Emulator, Normal';fill:#55ddff;stroke-width:1.23781"
         d="m 165.82682,192.51874 v 1.78064 h -1.26172 v 1.5478 h 3.43945 v 3.4517 h -2.05859 v 4.15848 h 1.30664 v 7.07872 h -2.84766 v 2.19431 h 5.57422 v 1.72859 h -4.15234 v 3.3476 h 2.65429 v 7.08148 h -2.65429 v 4.65705 h 1.73242 v 3.05997 h 8.16406 v -3.05997 h -1.73242 v -4.65705 h 2.65429 v -7.08148 h -2.65429 V 215.426 h 4.08398 v 2.38058 h 2.6543 v 3.34486 h 4.08203 v 3.73662 h -2.6543 v 1.98884 h 4.08204 v 2.66821 h 1.73242 v 3.05997 h 8.16601 v -3.05997 h -1.73242 v -4.65705 h 2.6543 v -7.08148 h -2.6543 v -3.3476 h 4.15234 v -1.72859 h -5.57421 v -2.19431 h 2.84765 v -7.07872 h -1.30664 v -4.15848 h 2.05859 v -3.4517 h -3.43945 v -1.5478 h 1.26172 v -1.78064 h -8.16601 v 1.78064 h -1.26172 v 1.5478 h 3.43945 v 3.4517 h -2.05859 v 4.15848 h 1.30664 v 6.24046 h -4.08204 v -5.72544 h -4.08203 v -0.51502 H 178.194 v -4.15848 h 2.0586 v -1.05195 h -4.08399 v -2.39975 h -3.43945 v -1.5478 h 1.26172 v -1.78064 z m 45.83158,0 v 1.78064 h -1.26172 v 1.5478 h 3.43946 v 2.39975 h 12.24804 v 1.05195 h -2.05859 v 4.15848 h 1.30664 v 0.51502 h -4.08203 v 5.72544 h -4.08399 v 0.83826 h -2.84765 v 2.19431 h 5.57422 v 1.72859 h -4.15235 v 0.96702 h 12.24805 v 2.38058 h 2.6543 v 7.08148 h -2.6543 v 1.98884 l -12.18555,-0.0575 v -1.93131 h 2.6543 v -3.82153 h -8.22656 v 3.82153 h -2.6543 v 1.93131 h 4.12305 v 2.72575 h 1.73242 v 3.05996 h 20.53515 v -3.05996 h -1.73242 v -2.72575 l 3.91992,0.0575 v -1.98884 h 2.6543 v -7.08148 h -2.6543 V 215.426 h -4.08203 v -0.96702 h 4.15235 v -1.72859 h -5.57422 v -2.19431 h 2.84765 v -0.83826 h -4.08398 v -5.72544 h 4.08398 v -0.51502 h -1.30664 v -4.15848 h 2.0586 v -1.05195 h 4.08203 v -2.39975 h -3.43945 v -1.5478 h 1.26171 v -1.78064 z m 39.09278,0 v 1.78064 h -1.26172 v 1.5478 h 3.43945 v 3.4517 h -2.05859 v 4.15848 h 1.30664 v 7.07872 h -2.84766 v 2.19431 h 5.57422 v 1.72859 h -4.15234 v 3.3476 h 2.6543 v 7.08148 h -2.6543 v 1.98884 h 4.08398 v 2.66821 h 1.73243 v 3.05997 h 20.41406 v -3.05997 h -1.73242 v -2.66821 h 4.08203 v -1.98884 h 2.6543 v -7.08148 h -2.6543 v -3.3476 h 4.15234 v -1.72859 h -5.57422 v -2.19431 h 2.84766 v -7.07872 h -1.30664 v -4.15848 h 2.05859 v -3.4517 h -3.43945 v -1.5478 h 1.26172 v -1.78064 h -8.16602 v 1.78064 h -1.26172 v 1.5478 h 3.43946 v 3.4517 h -2.0586 v 4.15848 h 1.30664 v 7.07872 h -2.84765 v 2.19431 h 5.57422 v 1.72859 h -4.15235 v 3.3476 h 2.6543 v 7.08148 h -2.6543 v 1.98884 H 258.9172 v -1.98884 h 2.65429 v -7.08148 h -2.65429 v -3.3476 h 4.15234 v -1.72859 h -5.57422 v -2.19431 h 2.84766 v -7.07872 h -1.30664 v -4.15848 h 2.05859 v -3.4517 h -3.43945 v -1.5478 h 1.26172 v -1.78064 z m 50.06854,0 v 1.78064 H 299.558 v 1.5478 h 3.43945 v 2.39975 h -4.08203 v 1.05195 h -2.05859 v 4.15848 h 1.30664 v 0.51502 h 4.08203 v 6.5637 h -2.84766 v 2.19431 h 5.57422 v 1.72859 h -4.15234 v 3.3476 h 2.6543 v 7.08148 h -2.6543 v 1.98884 h -8.16602 v 2.66821 h 1.73243 v 3.05997 h 24.49609 v -3.05997 h -1.73242 v -2.66821 h -8.16406 v -1.98884 h 2.65429 v -7.08148 h -2.65429 v -3.3476 h 4.15234 v -1.72859 h -5.57422 v -2.19431 h 2.84766 v -7.07872 h -1.30664 v -4.15848 h 2.05859 v -3.4517 h -3.43945 v -1.5478 h 1.26172 v -1.78064 z m 29.53898,0 v 1.78064 h -1.26172 v 1.5478 h 3.43945 v 3.4517 h -2.05859 v 4.15848 h 1.30664 v 7.07872 h -2.84766 v 2.19431 h 5.57422 v 1.72859 h -4.15234 v 3.3476 h 2.65429 v 7.08148 h -2.65429 v 4.65705 h 1.73242 v 3.05997 h 8.16601 v -3.05997 h -1.73242 v -4.65705 h 2.6543 v -3.73662 h 4.08203 v 3.73662 h -2.6543 v 1.98884 h 4.08203 v 2.66821 h 1.73243 v 3.05997 h 12.43164 v -3.05997 h -1.73242 v -2.72575 l -4.26563,0.0575 v -1.98885 h 2.6543 v -3.73665 h -4.08203 v -3.34485 h -2.6543 v -2.3806 h 8.16406 v -0.96702 h 4.15234 v -1.72858 h -5.57421 V 210.536 h 2.84765 v -7.07873 h -1.30664 v -4.15847 h 2.0586 v -1.05194 h -4.08204 v -2.39977 h -3.43945 v -1.54779 h 1.26172 v -1.78064 z m 49.30891,0 v 1.78064 h -1.26172 v 1.5478 h 3.43945 v 1.68202 l -0.51172,0.71773 h -3.57226 v 1.05195 h -2.0586 v 4.15848 h 1.30664 v 0.51502 h -4.08203 v 6.5637 h -2.84766 v 2.19431 h 5.57422 v 1.72859 h -4.15234 v 3.3476 h 2.6543 v 3.25994 l 4.08203,0.0849 v 3.73663 h -2.6543 v 1.98883 h 4.08399 l 0.0273,2.66822 h 1.73242 l 0.0332,3.05996 h 12.1875 v -3.05996 h -1.73242 v -1.95049 l 0.50977,-0.71773 h 3.57226 v -1.98883 h 2.6543 v -3.73663 h 4.08203 v -3.34485 h -2.6543 v -3.34761 h 4.15235 v -1.72859 h -5.57422 v -2.1943 h 2.84766 v -6.56371 h -4.08203 v -0.51502 h -1.30665 v -4.15847 h 2.0586 v -1.05195 h -4.08203 v -2.39977 h -3.43942 v -1.54779 h 1.26172 v -1.78064 z m 34.22334,0 v 1.78064 h -1.26172 v 1.5478 h 3.43946 v 3.4517 h -2.0586 v 4.15848 h 1.30664 v 7.07872 h -2.84765 v 2.19431 h 5.57422 v 1.72859 h -4.15235 v 3.3476 h 2.6543 v 7.08148 h -2.6543 v 4.65705 h 1.73243 v 3.05997 h 8.16601 v -3.05997 h -1.73242 v -4.65705 h 2.6543 v -7.08148 h -2.6543 V 215.426 h 4.08203 v 2.38058 h 2.6543 v 3.34486 h 4.08203 v 3.73662 h -2.6543 v 1.98884 h 4.08399 v 2.66821 h 1.73242 v 3.05997 h 8.16406 v -3.05997 h -1.73242 v -4.65705 h 2.6543 v -7.08148 h -2.6543 v -3.3476 h 4.15234 v -1.72859 h -5.57422 v -2.19431 h 2.84766 v -7.07872 h -1.30664 v -4.15848 h 2.05859 v -3.4517 h -3.43945 v -1.5478 h 1.26172 v -1.78064 h -8.16406 v 1.78064 h -1.26172 v 1.5478 h 3.43945 v 3.4517 h -2.05859 v 4.15848 h 1.30664 v 6.24046 h -4.08399 v -5.72544 h -4.08203 v -0.51502 h -1.30664 v -4.15848 h 2.05859 v -1.05195 h -4.08203 v -2.39975 h -3.43945 v -1.5478 h 1.26172 v -1.78064 z m -73.1885,5.72819 h 12.24804 v 1.05195 h -2.05859 v 4.15848 h 1.30664 v 6.24046 h -4.08398 v 0.83826 h -2.84766 v 2.19431 h 5.57422 v 1.72859 h -4.15235 v 0.96702 h -8.16406 v -0.96702 h 4.15235 v -1.72859 h -5.57422 v -2.19431 h 2.84765 v -7.07872 h -1.30664 v -4.15848 h 2.0586 z m 41.65266,0 h 7.65429 v 1.05195 h -2.05859 v 4.15848 h 1.30664 v 0.51502 h 4.08398 v 6.5637 h -2.84765 v 2.19431 h 5.57422 v 1.72859 h -4.15235 v 3.3476 h 2.6543 v 7.08148 h -2.6543 v 1.27384 l -0.51172,0.715 h -7.65429 v -1.98884 h 2.65429 v -3.73662 h -4.08203 v -3.34486 h -2.65429 v -3.3476 h 4.15234 v -1.72859 h -5.57422 v -2.19431 h 2.84766 v -7.07872 h -1.30664 v -4.15848 h 2.05859 v -0.33696 z"
         sodipodi:nodetypes="ccccccccccccccccccccccccccccccccccccccccccccccccccccccccccccccccccccccccccccccccccccccccccccccccccccccccccccccccccccccccccccccccccccccccccccccccccccccccccccccccccccccccccccccccccccccccccccccccccccccccccccccccccccccccccccccccccccccccccccccccccccccccccccccccccccccccccccccccccccccccccccccccccccccccccccccccccccccccccccccccccccccccccccccccccccccccccccccccccccccccccccccccccccccccccccccccccccccccccccccccccccccccccccccccccccccccccccccccccccccccccccccccccccccccccccccccccccccccccccccccccccccccccccccccccccccccccccccccccccccccccccccccccccccccccccccccccccccccccccccccccccccccccccccccccccccccccccc" />
      <path
         id="path9112"
         style="font-size:41.8068px;line-height:1.25;font-family:'Pixel Emulator';-inkscape-font-specification:'Pixel Emulator, Normal';fill:#ff2a7f;fill-opacity:1;stroke-width:1.23781"
         d="m 174.36121,192.51874 v 1.78064 h -1.26172 v 1.5478 h 3.43945 v 3.4517 h -2.05859 v 4.15848 h 1.30664 v 7.07872 h -2.84766 v 2.19431 h 5.57422 v 1.72859 h -4.15234 v 3.3476 h 2.65429 v 7.08148 h -2.65429 v 4.65705 h 1.73242 v 3.05997 h 8.16406 v -3.05997 h -1.73242 v -4.65705 h 2.65429 v -7.08148 h -2.65429 V 215.426 h 4.08398 v 2.38058 h 2.6543 v 3.34486 h 4.08203 v 3.73662 h -2.6543 v 1.98884 h 4.08204 v 2.66821 h 1.73242 v 3.05997 h 8.16601 v -3.05997 h -1.73242 v -4.65705 h 2.6543 v -7.08148 h -2.6543 v -3.3476 h 4.15234 v -1.72859 h -5.57421 v -2.19431 h 2.84765 v -7.07872 h -1.30664 v -4.15848 h 2.05859 v -3.4517 h -3.43945 v -1.5478 h 1.26172 v -1.78064 h -8.16601 v 1.78064 h -1.26172 v 1.5478 h 3.43945 v 3.4517 h -2.05859 v 4.15848 h 1.30664 v 6.24046 h -4.08204 v -5.72544 h -4.08203 v -0.51502 h -1.30664 v -4.15848 h 2.0586 v -1.05195 H 184.703 v -2.39975 h -3.43945 v -1.5478 h 1.26172 v -1.78064 z m 45.83158,0 v 1.78064 h -1.26172 v 1.5478 h 3.43946 v 2.39975 h 12.24804 v 1.05195 h -2.05859 v 4.15848 h 1.30664 v 0.51502 h -4.08203 v 5.72544 h -4.08399 v 0.83826 h -2.84765 v 2.19431 h 5.57422 v 1.72859 h -4.15235 v 0.96702 h 12.24805 v 2.38058 h 2.6543 v 7.08148 h -2.6543 v 1.98884 l -12.18555,-0.0575 v -1.93131 h 2.6543 v -3.82153 h -8.22656 v 3.82153 h -2.6543 v 1.93131 h 4.12305 v 2.72575 h 1.73242 v 3.05996 h 20.53515 v -3.05996 h -1.73242 v -2.72575 l 3.91992,0.0575 v -1.98884 h 2.6543 v -7.08148 h -2.6543 V 215.426 h -4.08203 v -0.96702 h 4.15235 v -1.72859 h -5.57422 v -2.19431 h 2.84765 v -0.83826 h -4.08398 v -5.72544 h 4.08398 v -0.51502 h -1.30664 v -4.15848 h 2.0586 v -1.05195 h 4.08203 v -2.39975 h -3.43945 v -1.5478 h 1.26171 v -1.78064 z m 39.09278,0 v 1.78064 h -1.26172 v 1.5478 h 3.43945 v 3.4517 h -2.05859 v 4.15848 h 1.30664 v 7.07872 h -2.84766 v 2.19431 h 5.57422 v 1.72859 h -4.15234 v 3.3476 h 2.6543 v 7.08148 h -2.6543 v 1.98884 h 4.08398 v 2.66821 h 1.73243 v 3.05997 h 20.41406 v -3.05997 h -1.73242 v -2.66821 h 4.08203 v -1.98884 h 2.6543 v -7.08148 h -2.6543 v -3.3476 h 4.15234 v -1.72859 h -5.57422 v -2.19431 h 2.84766 v -7.07872 h -1.30664 v -4.15848 h 2.05859 v -3.4517 h -3.43945 v -1.5478 h 1.26172 v -1.78064 h -8.16602 v 1.78064 h -1.26172 v 1.5478 h 3.43946 v 3.4517 h -2.0586 v 4.15848 h 1.30664 v 7.07872 h -2.84765 v 2.19431 h 5.57422 v 1.72859 h -4.15235 v 3.3476 h 2.6543 v 7.08148 h -2.6543 v 1.98884 h -12.24804 v -1.98884 h 2.65429 v -7.08148 h -2.65429 v -3.3476 h 4.15234 v -1.72859 h -5.57422 v -2.19431 h 2.84766 v -7.07872 h -1.30664 v -4.15848 h 2.05859 v -3.4517 h -3.43945 v -1.5478 h 1.26172 v -1.78064 z m 50.06854,0 v 1.78064 h -1.26172 v 1.5478 h 3.43945 v 2.39975 h -4.08203 v 1.05195 h -2.05859 v 4.15848 h 1.30664 v 0.51502 h 4.08203 v 6.5637 h -2.84766 v 2.19431 h 5.57422 v 1.72859 h -4.15234 v 3.3476 h 2.6543 v 7.08148 h -2.6543 v 1.98884 h -8.16602 v 2.66821 h 1.73243 v 3.05997 h 24.49609 v -3.05997 h -1.73242 v -2.66821 h -8.16406 v -1.98884 h 2.65429 v -7.08148 h -2.65429 v -3.3476 h 4.15234 v -1.72859 h -5.57422 v -2.19431 h 2.84766 v -7.07872 h -1.30664 v -4.15848 h 2.05859 v -3.4517 h -3.43945 v -1.5478 h 1.26172 v -1.78064 z m 29.53898,0 v 1.78064 h -1.26172 v 1.5478 h 3.43945 v 3.4517 h -2.05859 v 4.15848 h 1.30664 v 7.07872 h -2.84766 v 2.19431 h 5.57422 v 1.72859 h -4.15234 v 3.3476 h 2.65429 v 7.08148 h -2.65429 v 4.65705 h 1.73242 v 3.05997 h 8.16601 v -3.05997 h -1.73242 v -4.65705 h 2.6543 v -3.73662 h 4.08203 v 3.73662 h -2.6543 v 1.98884 h 4.08203 v 2.66821 h 1.73243 v 3.05997 h 12.43164 v -3.05997 h -1.73242 v -2.72575 l -4.26563,0.0575 v -1.98885 h 2.6543 v -3.73665 h -4.08203 v -3.34485 h -2.6543 v -2.3806 h 8.16406 v -0.96702 h 4.15234 v -1.72858 h -5.57421 V 210.536 h 2.84765 v -7.07873 h -1.30664 v -4.15847 h 2.0586 v -1.05194 h -4.08204 v -2.39977 h -3.43945 v -1.54779 h 1.26172 v -1.78064 z m 49.30891,0 v 1.78064 h -1.26172 v 1.5478 h 3.43945 v 1.68202 l -0.51172,0.71773 h -3.57226 v 1.05195 h -2.0586 v 4.15848 h 1.30664 v 0.51502 h -4.08203 v 6.5637 h -2.84766 v 2.19431 h 5.57422 v 1.72859 h -4.15234 v 3.3476 h 2.6543 v 3.25994 l 4.08203,0.0849 v 3.73663 h -2.6543 v 1.98883 h 4.08399 l 0.0273,2.66822 h 1.73242 l 0.0332,3.05996 h 12.1875 V 229.5451 H 400.45 v -1.95049 l 0.50977,-0.71773 h 3.57226 v -1.98883 h 2.6543 v -3.73663 h 4.08203 v -3.34485 h -2.6543 v -3.34761 h 4.15235 v -1.72859 h -5.57422 v -2.1943 h 2.84766 v -6.56371 h -4.08203 v -0.51502 h -1.30665 v -4.15847 h 2.0586 v -1.05195 h -4.08203 v -2.39977 h -3.43942 v -1.54779 h 1.26172 v -1.78064 z m 34.22334,0 v 1.78064 h -1.26172 v 1.5478 h 3.43946 v 3.4517 h -2.0586 v 4.15848 h 1.30664 v 7.07872 h -2.84765 v 2.19431 h 5.57422 v 1.72859 h -4.15235 v 3.3476 h 2.6543 v 7.08148 h -2.6543 v 4.65705 h 1.73243 v 3.05997 h 8.16601 v -3.05997 h -1.73242 v -4.65705 h 2.6543 v -7.08148 h -2.6543 V 215.426 h 4.08203 v 2.38058 h 2.6543 v 3.34486 h 4.08203 v 3.73662 h -2.6543 v 1.98884 h 4.08399 v 2.66821 h 1.73242 v 3.05997 h 8.16406 v -3.05997 h -1.73242 v -4.65705 h 2.6543 v -7.08148 h -2.6543 v -3.3476 h 4.15234 v -1.72859 h -5.57422 v -2.19431 h 2.84766 v -7.07872 h -1.30664 v -4.15848 h 2.05859 v -3.4517 h -3.43945 v -1.5478 h 1.26172 v -1.78064 h -8.16406 v 1.78064 h -1.26172 v 1.5478 h 3.43945 v 3.4517 h -2.05859 v 4.15848 h 1.30664 v 6.24046 h -4.08399 v -5.72544 h -4.08203 v -0.51502 h -1.30664 v -4.15848 h 2.05859 v -1.05195 h -4.08203 v -2.39975 h -3.43945 v -1.5478 h 1.26172 v -1.78064 z m -73.1885,5.72819 h 12.24804 v 1.05195 h -2.05859 v 4.15848 h 1.30664 v 6.24046 h -4.08398 v 0.83826 h -2.84766 v 2.19431 h 5.57422 v 1.72859 h -4.15235 v 0.96702 h -8.16406 v -0.96702 h 4.15235 v -1.72859 h -5.57422 v -2.19431 h 2.84765 v -7.07872 h -1.30664 v -4.15848 h 2.0586 z m 41.65266,0 h 7.65429 v 1.05195 h -2.05859 v 4.15848 h 1.30664 v 0.51502 h 4.08398 v 6.5637 h -2.84765 v 2.19431 h 5.57422 v 1.72859 h -4.15235 v 3.3476 h 2.6543 v 7.08148 h -2.6543 v 1.27384 l -0.51172,0.715 h -7.65429 v -1.98884 h 2.65429 v -3.73662 h -4.08203 v -3.34486 H 388.202 v -3.3476 h 4.15234 v -1.72859 h -5.57422 v -2.19431 h 2.84766 v -7.07872 h -1.30664 v -4.15848 h 2.05859 v -0.33696 z"
         sodipodi:nodetypes="ccccccccccccccccccccccccccccccccccccccccccccccccccccccccccccccccccccccccccccccccccccccccccccccccccccccccccccccccccccccccccccccccccccccccccccccccccccccccccccccccccccccccccccccccccccccccccccccccccccccccccccccccccccccccccccccccccccccccccccccccccccccccccccccccccccccccccccccccccccccccccccccccccccccccccccccccccccccccccccccccccccccccccccccccccccccccccccccccccccccccccccccccccccccccccccccccccccccccccccccccccccccccccccccccccccccccccccccccccccccccccccccccccccccccccccccccccccccccccccccccccccccccccccccccccccccccccccccccccccccccccccccccccccccccccccccccccccccccccccccccccccccccccccccccccccccccccccc" />
      <path
         id="path8272"
         style="font-size:41.8068px;line-height:1.25;font-family:'Pixel Emulator';-inkscape-font-specification:'Pixel Emulator, Normal';fill:#00112b;stroke-width:1.23969;stroke-miterlimit:4;stroke-dasharray:none"
         d="m 169.67149,192.51874 v 1.78064 h -1.26172 v 1.5478 h 3.43945 v 3.4517 h -2.05859 v 4.15848 h 1.30664 v 7.07872 h -2.84766 v 2.19431 h 5.57422 v 1.72859 h -4.15234 v 3.3476 h 2.65429 v 7.08148 h -2.65429 v 4.65705 h 1.73242 v 3.05997 h 8.16406 v -3.05997 h -1.73242 v -4.65705 h 2.65429 v -7.08148 h -2.65429 V 215.426 h 4.08398 v 2.38058 h 2.6543 v 3.34486 h 4.08203 v 3.73662 h -2.6543 v 1.98884 h 4.08204 v 2.66821 h 1.73242 v 3.05997 h 8.16601 v -3.05997 h -1.73242 v -4.65705 h 2.6543 v -7.08148 h -2.6543 v -3.3476 h 4.15234 v -1.72859 h -5.57421 v -2.19431 h 2.84765 v -7.07872 h -1.30664 v -4.15848 h 2.05859 v -3.4517 h -3.43945 v -1.5478 h 1.26172 v -1.78064 h -8.16601 v 1.78064 h -1.26172 v 1.5478 h 3.43945 v 3.4517 h -2.05859 v 4.15848 h 1.30664 v 6.24046 h -4.08204 v -5.72544 h -4.08203 v -0.51502 h -1.30664 v -4.15848 h 2.0586 v -1.05195 h -4.08399 v -2.39975 h -3.43945 v -1.5478 h 1.26172 v -1.78064 z m 45.83158,0 v 1.78064 h -1.26172 v 1.5478 h 3.43946 v 2.39975 h 12.24804 v 1.05195 h -2.05859 v 4.15848 h 1.30664 v 0.51502 h -4.08203 v 5.72544 h -4.08399 v 0.83826 h -2.84765 v 2.19431 h 5.57422 v 1.72859 h -4.15235 v 0.96702 h 12.24805 v 2.38058 h 2.6543 v 7.08148 h -2.6543 v 1.98884 l -12.18555,-0.0575 v -1.93131 h 2.6543 v -3.82153 h -8.22656 v 3.82153 h -2.6543 v 1.93131 h 4.12305 v 2.72575 h 1.73242 v 3.05996 h 20.53515 v -3.05996 h -1.73242 v -2.72575 l 3.91992,0.0575 v -1.98884 h 2.6543 v -7.08148 h -2.6543 V 215.426 h -4.08203 v -0.96702 h 4.15235 v -1.72859 h -5.57422 v -2.19431 h 2.84765 v -0.83826 h -4.08398 v -5.72544 h 4.08398 v -0.51502 h -1.30664 v -4.15848 h 2.0586 v -1.05195 h 4.08203 v -2.39975 h -3.43945 v -1.5478 h 1.26171 v -1.78064 z m 39.09278,0 v 1.78064 h -1.26172 v 1.5478 h 3.43945 v 3.4517 h -2.05859 v 4.15848 h 1.30664 v 7.07872 h -2.84766 v 2.19431 h 5.57422 v 1.72859 h -4.15234 v 3.3476 h 2.6543 v 7.08148 h -2.6543 v 1.98884 h 4.08398 v 2.66821 h 1.73243 v 3.05997 h 20.41406 v -3.05997 h -1.73242 v -2.66821 h 4.08203 v -1.98884 h 2.6543 v -7.08148 h -2.6543 v -3.3476 h 4.15234 v -1.72859 h -5.57422 v -2.19431 h 2.84766 v -7.07872 h -1.30664 v -4.15848 h 2.05859 v -3.4517 h -3.43945 v -1.5478 h 1.26172 v -1.78064 h -8.16602 v 1.78064 h -1.26172 v 1.5478 h 3.43946 v 3.4517 h -2.0586 v 4.15848 h 1.30664 v 7.07872 h -2.84765 v 2.19431 h 5.57422 v 1.72859 h -4.15235 v 3.3476 h 2.6543 v 7.08148 h -2.6543 v 1.98884 h -12.24804 v -1.98884 h 2.65429 v -7.08148 h -2.65429 v -3.3476 h 4.15234 v -1.72859 h -5.57422 v -2.19431 h 2.84766 v -7.07872 h -1.30664 v -4.15848 h 2.05859 v -3.4517 h -3.43945 v -1.5478 h 1.26172 v -1.78064 z m 50.06854,0 v 1.78064 h -1.26172 v 1.5478 h 3.43945 v 2.39975 h -4.08203 v 1.05195 h -2.05859 v 4.15848 h 1.30664 v 0.51502 h 4.08203 v 6.5637 h -2.84766 v 2.19431 h 5.57422 v 1.72859 h -4.15234 v 3.3476 h 2.6543 v 7.08148 h -2.6543 v 1.98884 h -8.16602 v 2.66821 h 1.73243 v 3.05997 h 24.49609 v -3.05997 h -1.73242 v -2.66821 h -8.16406 v -1.98884 h 2.65429 v -7.08148 h -2.65429 v -3.3476 h 4.15234 v -1.72859 h -5.57422 v -2.19431 h 2.84766 v -7.07872 h -1.30664 v -4.15848 h 2.05859 v -3.4517 h -3.43945 v -1.5478 h 1.26172 v -1.78064 z m 29.53898,0 v 1.78064 h -1.26172 v 1.5478 h 3.43945 v 3.4517 h -2.05859 v 4.15848 h 1.30664 v 7.07872 h -2.84766 v 2.19431 h 5.57422 v 1.72859 h -4.15234 v 3.3476 h 2.65429 v 7.08148 h -2.65429 v 4.65705 h 1.73242 v 3.05997 h 8.16601 v -3.05997 h -1.73242 v -4.65705 h 2.6543 v -3.73662 h 4.08203 v 3.73662 h -2.6543 v 1.98884 h 4.08203 v 2.66821 h 1.73243 v 3.05997 h 12.43164 v -3.05997 h -1.73242 v -2.72575 l -4.26563,0.0575 v -1.98885 h 2.6543 v -3.73665 h -4.08203 v -3.34485 h -2.6543 v -2.3806 h 8.16406 v -0.96702 h 4.15234 v -1.72858 h -5.57421 V 210.536 h 2.84765 v -7.07873 h -1.30664 v -4.15847 h 2.0586 v -1.05194 h -4.08204 v -2.39977 h -3.43945 v -1.54779 h 1.26172 v -1.78064 z m 49.30891,0 v 1.78064 h -1.26172 v 1.5478 h 3.43945 v 1.68202 l -0.51172,0.71773 h -3.57226 v 1.05195 h -2.0586 v 4.15848 h 1.30664 v 0.51502 h -4.08203 v 6.5637 h -2.84766 v 2.19431 h 5.57422 v 1.72859 h -4.15234 v 3.3476 h 2.6543 v 3.25994 l 4.08203,0.0849 v 3.73663 h -2.6543 v 1.98883 h 4.08399 l 0.0273,2.66822 h 1.73242 l 0.0332,3.05996 h 12.1875 v -3.05996 h -1.73242 v -1.95049 l 0.50977,-0.71773 h 3.57226 v -1.98883 h 2.6543 v -3.73663 h 4.08203 v -3.34485 h -2.6543 v -3.34761 h 4.15235 v -1.72859 h -5.57422 v -2.1943 h 2.84766 v -6.56371 h -4.08203 v -0.51502 h -1.30665 v -4.15847 h 2.0586 v -1.05195 h -4.08203 v -2.39977 h -3.43946 v -1.54779 h 1.26172 v -1.78064 z m 34.22334,0 v 1.78064 h -1.26172 v 1.5478 h 3.43946 v 3.4517 h -2.0586 v 4.15848 h 1.30664 v 7.07872 h -2.84765 v 2.19431 h 5.57422 v 1.72859 h -4.15235 v 3.3476 h 2.6543 v 7.08148 h -2.6543 v 4.65705 h 1.73243 v 3.05997 h 8.16601 v -3.05997 h -1.73242 v -4.65705 h 2.6543 v -7.08148 h -2.6543 V 215.426 h 4.08203 v 2.38058 h 2.6543 v 3.34486 H 436.72 v 3.73662 h -2.6543 v 1.98884 h 4.08399 v 2.66821 h 1.73242 v 3.05997 h 8.16406 v -3.05997 h -1.73242 v -4.65705 h 2.6543 v -7.08148 h -2.6543 v -3.3476 h 4.15234 v -1.72859 h -5.57422 v -2.19431 h 2.84766 v -7.07872 h -1.30664 v -4.15848 h 2.05859 v -3.4517 h -3.43945 v -1.5478 h 1.26172 v -1.78064 h -8.16406 v 1.78064 h -1.26172 v 1.5478 h 3.43945 v 3.4517 h -2.05859 v 4.15848 h 1.30664 v 6.24046 h -4.08399 v -5.72544 h -4.08203 v -0.51502 h -1.30664 v -4.15848 h 2.05859 v -1.05195 h -4.08203 v -2.39975 h -3.43945 v -1.5478 h 1.26172 v -1.78064 z m -73.1885,5.72819 h 12.24804 v 1.05195 h -2.05859 v 4.15848 h 1.30664 v 6.24046 h -4.08398 v 0.83826 h -2.84766 v 2.19431 h 5.57422 v 1.72859 h -4.15235 v 0.96702 h -8.16406 v -0.96702 h 4.15235 v -1.72859 h -5.57422 v -2.19431 h 2.84765 v -7.07872 h -1.30664 v -4.15848 h 2.0586 z m 41.65266,0 h 7.65429 v 1.05195 h -2.05859 v 4.15848 h 1.30664 v 0.51502 h 4.08398 v 6.5637 h -2.84765 v 2.19431 h 5.57422 v 1.72859 h -4.15235 v 3.3476 h 2.6543 v 7.08148 h -2.6543 v 1.27384 l -0.51172,0.715 h -7.65429 v -1.98884 h 2.65429 v -3.73662 h -4.08203 v -3.34486 h -2.65429 v -3.3476 h 4.15234 v -1.72859 h -5.57422 v -2.19431 h 2.84766 v -7.07872 h -1.30664 v -4.15848 h 2.05859 v -0.33696 z"
         sodipodi:nodetypes="ccccccccccccccccccccccccccccccccccccccccccccccccccccccccccccccccccccccccccccccccccccccccccccccccccccccccccccccccccccccccccccccccccccccccccccccccccccccccccccccccccccccccccccccccccccccccccccccccccccccccccccccccccccccccccccccccccccccccccccccccccccccccccccccccccccccccccccccccccccccccccccccccccccccccccccccccccccccccccccccccccccccccccccccccccccccccccccccccccccccccccccccccccccccccccccccccccccccccccccccccccccccccccccccccccccccccccccccccccccccccccccccccccccccccccccccccccccccccccccccccccccccccccccccccccccccccccccccccccccccccccccccccccccccccccccccccccccccccccccccccccccccccccccccccccccccccccccc" />
    </g>
  </g>
</svg>
